<svg xmlns="http://www.w3.org/2000/svg" width="80.199" height="63.648" viewBox="0 0 80.199 63.648"><g transform="translate(0 -52.831)"><path d="M80.2,80.7c.235-21-22.431-34.65-40.881-24.381-7.531,4.191-13.132,4.665-19.945,4.661A19.487,19.487,0,0,0,0,80.131H0V88.7a19.389,19.389,0,0,0,19.112,19.663q.579.008,1.158-.018A35.9,35.9,0,0,1,39.3,113.011,27.521,27.521,0,0,0,80.2,89.277V80.7ZM19.374,63.494c7.205.02,13.182-.537,21.159-4.978C57.309,49.178,77.915,61.6,77.691,80.689A25.014,25.014,0,0,1,40.52,102.244a38.418,38.418,0,0,0-20.362-4.985,16.891,16.891,0,1,1-.783-33.765Zm50.891,43.252a25,25,0,0,1-29.747,4.072,38.4,38.4,0,0,0-20.362-4.985A16.885,16.885,0,0,1,2.54,90a19.37,19.37,0,0,0,17.732,9.774A35.907,35.907,0,0,1,39.3,104.444,27.57,27.57,0,0,0,77.466,92.388,24.838,24.838,0,0,1,70.265,106.746Z" fill="#850202"/><path d="M74.258,93.761C66,98.356,59.492,99.174,51.45,99.174h-.022a13.448,13.448,0,0,0-.186,26.9q.407.006.814-.013a41.9,41.9,0,0,1,22.188,5.418,21.571,21.571,0,0,0,32.05-18.592C106.49,96.232,88.5,85.835,74.258,93.761Zm15.784,25.2a6.84,6.84,0,1,1,6.84-6.84h0A6.84,6.84,0,0,1,90.042,118.956Z" transform="translate(-32.049 -32.234)" fill="#a02321"/><path d="M326.66,190.046a8.093,8.093,0,1,1,8.093-8.093h0A8.1,8.1,0,0,1,326.66,190.046Zm0-13.679a5.587,5.587,0,1,0,5.587,5.587h0a5.593,5.593,0,0,0-5.587-5.587Z" transform="translate(-268.667 -102.071)" fill="#a02321"/></g></svg>