<svg xmlns="http://www.w3.org/2000/svg" width="61" height="62.001" viewBox="0 0 61 62.001"><g transform="translate(-1.5 -0.999)"><path d="M42.624,32.378l2.82-12.214A12.973,12.973,0,0,0,32,39.019Z" fill="rgba(160,35,33,0.1)"/><path d="M45.632,34.524l5.582,8.932A12.937,12.937,0,0,0,55.9,36.894Z" fill="rgba(160,35,33,0.1)"/><path d="M44.7,32.257l11.643,2.688a13,13,0,0,0-8.955-14.331Z" fill="rgba(160,35,33,0.1)"/><path d="M59.5,13h-32a3,3,0,0,0-3,3V53h27a3,3,0,0,1,3,3v.822a4.12,4.12,0,0,0,3.6,4.158A4,4,0,0,0,62.5,57V16A3,3,0,0,0,59.5,13Zm-16,35a15,15,0,1,1,15-15,15,15,0,0,1-15,15Z" fill="rgba(160,35,33,0.1)"/><path d="M43.187,34.384,33.056,40.715a12.938,12.938,0,0,0,16.462,3.8Z" fill="rgba(160,35,33,0.1)"/><path d="M52.5,57V56a1,1,0,0,0-1-1h-32a3,3,0,0,0-3,3,5,5,0,0,0,5,5h37a6.006,6.006,0,0,1-6-6Z" fill="rgba(160,35,33,0.1)"/><path d="M28.937,5.97a1,1,0,0,0,1.115-.87l.365-2.979a1,1,0,1,0-1.985-.244l-.366,2.978a1,1,0,0,0,.871,1.115Z" fill="#850202"/><path d="M24.063,45.671a1.006,1.006,0,0,0-1.115.871l-.365,2.978a1,1,0,1,0,1.985.244l.366-2.978a1,1,0,0,0-.871-1.115Z" fill="#850202"/><path d="M24.063,5.97a1,1,0,0,0,.871-1.115l-.366-2.978a1,1,0,1,0-1.985.244L22.948,5.1a1,1,0,0,0,1.115.87Z" fill="#850202"/><path d="M28.937,45.671a1,1,0,0,0-.871,1.115l.366,2.978a1,1,0,1,0,1.985-.244l-.365-2.978a1.006,1.006,0,0,0-1.115-.871Z" fill="#850202"/><path d="M18.041,6.574a1,1,0,1,0,1.867-.717l-1.075-2.8a1,1,0,0,0-1.868.716Z" fill="#850202"/><path d="M34.959,45.067a1,1,0,1,0-1.867.717l1.075,2.8a1,1,0,1,0,1.868-.717Z" fill="#850202"/><path d="M33.667,7.149a1,1,0,0,0,1.292-.575l1.076-2.8a1,1,0,1,0-1.868-.716l-1.075,2.8a1,1,0,0,0,.575,1.291Z" fill="#850202"/><path d="M19.333,44.492a1,1,0,0,0-1.292.575l-1.076,2.8a1,1,0,1,0,1.868.717l1.075-2.8A1,1,0,0,0,19.333,44.492Z" fill="#850202"/><path d="M51.4,25.373C51.057,24.7,42.929,8.821,26.5,8.821S1.943,24.7,1.605,25.373a1.006,1.006,0,0,0,0,.895c.338.676,8.466,16.553,24.9,16.553S51.057,26.944,51.4,26.268A1.006,1.006,0,0,0,51.4,25.373ZM26.5,40.821c-13.7,0-21.429-12.459-22.862-15,1.433-2.541,9.163-15,22.862-15s21.429,12.459,22.862,15c-1.433,2.541-9.162,15-22.862,15Z" fill="#850202"/><path d="M26.5,13.821a12,12,0,1,0,12,12,12,12,0,0,0-12-12Zm0,22a10,10,0,1,1,10-10A10,10,0,0,1,26.5,35.821Z" fill="#850202"/><path d="M26.5,18.821a7,7,0,1,0,7,7A7,7,0,0,0,26.5,18.821Zm0,12a5,5,0,1,1,5-5,5,5,0,0,1-5,5Z" fill="#850202"/></g></svg>