<svg xmlns="http://www.w3.org/2000/svg" width="20.618" height="26.845" viewBox="0 0 20.618 26.845"><path d="M64.4,25.782,63.452,7.4a.962.962,0,0,0-.961-.913H59.682v-.9a5.583,5.583,0,0,0-11.166,0v.9H45.708a.963.963,0,0,0-.961.913l-.954,18.434a.963.963,0,0,0,.961,1.012H63.447a.962.962,0,0,0,.962-.962A.981.981,0,0,0,64.4,25.782Zm-14.516-15.4a1.031,1.031,0,1,1,1.031-1.031A1.031,1.031,0,0,1,49.888,10.382Zm6.932-3.9H51.38v-.9a2.72,2.72,0,1,1,5.44,0Zm1.493,3.9a1.031,1.031,0,1,1,1.031-1.031A1.031,1.031,0,0,1,58.313,10.382Z" transform="translate(-43.791)" fill="#fffae8"/></svg>