<svg xmlns="http://www.w3.org/2000/svg" width="71.345" height="64" viewBox="0 0 71.345 64"><path d="M393.741,140a1.741,1.741,0,1,0,1.741,1.741A1.742,1.742,0,0,0,393.741,140Zm0,0" transform="translate(-337.93 -120.713)" fill="#a02321"/><path d="M188.972,85.743l2.251-2.25,2.251,2.251a1.742,1.742,0,0,0,2.462,0l2.251-2.251,2.251,2.251a1.742,1.742,0,0,0,2.462,0l2.251-2.251,2.251,2.251a1.741,1.741,0,1,0,2.462-2.462L206.381,79.8a1.742,1.742,0,0,0-2.462,0l-2.251,2.251L199.417,79.8a1.74,1.74,0,0,0-2.462,0L194.7,82.05,192.454,79.8a1.74,1.74,0,0,0-2.462,0l-3.482,3.482a1.741,1.741,0,0,0,2.462,2.462Zm0,0" transform="translate(-162.514 -68.503)" fill="#a02321"/><path d="M69.951,0H1.393A1.393,1.393,0,0,0,0,1.393V54.345a1.393,1.393,0,0,0,1.393,1.393H37.066v6.868a1.393,1.393,0,0,0,2.379.985L44.033,59l4.589,4.589A1.393,1.393,0,0,0,51,62.606V55.738H69.951a1.393,1.393,0,0,0,1.393-1.393V1.393A1.393,1.393,0,0,0,69.951,0ZM35.672,36.23a8.361,8.361,0,1,1,8.361,8.361A8.37,8.37,0,0,1,35.672,36.23ZM51,44.925a11.148,11.148,0,1,0-13.935,0v2.453h-24.7a5.6,5.6,0,0,0-4-4V12.365a5.6,5.6,0,0,0,4-4H58.98a5.6,5.6,0,0,0,4,4V43.373a5.6,5.6,0,0,0-4,4H51ZM48.214,59.242l-3.2-3.2a1.393,1.393,0,0,0-1.97,0l-3.2,3.2V46.564a11.151,11.151,0,0,0,8.361,0Zm20.344-6.291H51V50.164h9.2a1.393,1.393,0,0,0,1.393-1.393,2.79,2.79,0,0,1,2.787-2.787,1.393,1.393,0,0,0,1.393-1.393V11.148a1.393,1.393,0,0,0-1.393-1.393,2.79,2.79,0,0,1-2.787-2.787A1.393,1.393,0,0,0,60.2,5.574H11.148A1.393,1.393,0,0,0,9.754,6.967,2.79,2.79,0,0,1,6.967,9.754a1.393,1.393,0,0,0-1.393,1.393V44.591a1.393,1.393,0,0,0,1.393,1.393,2.79,2.79,0,0,1,2.787,2.787,1.393,1.393,0,0,0,1.393,1.393H37.066v2.787H2.787V2.787H68.558Zm0,0" fill="#a02321"/><path d="M289.927,226.964a6.964,6.964,0,1,0-6.964,6.964A6.972,6.972,0,0,0,289.927,226.964Zm-10.446,0a3.482,3.482,0,1,1,3.482,3.482A3.486,3.486,0,0,1,279.482,226.964Zm0,0" transform="translate(-239.317 -190.956)" fill="#a02321"/><path d="M145.613,140H101.741a1.741,1.741,0,1,0,0,3.482h43.872a1.741,1.741,0,0,0,0-3.482Zm0,0" transform="translate(-90.004 -120.713)" fill="#a02321"/><path d="M116.713,200H101.741a1.741,1.741,0,1,0,0,3.482h14.972a1.741,1.741,0,0,0,0-3.482Zm0,0" transform="translate(-86.973 -172.447)" fill="#a02321"/><path d="M116.713,260H101.741a1.741,1.741,0,0,0,0,3.482h14.972a1.741,1.741,0,0,0,0-3.482Zm0,0" transform="translate(-86.973 -224.182)" fill="#a02321"/></svg>