<svg xmlns="http://www.w3.org/2000/svg" width="70" height="70" viewBox="0 0 70 70"><path d="M65.352,420H1.367A1.367,1.367,0,0,0,0,421.367a11.224,11.224,0,0,0,11.211,11.211H35.072A11.176,11.176,0,0,0,42.99,429.3H65.352a4.648,4.648,0,0,0,0-9.3Zm-30.279,9.844H11.211a8.49,8.49,0,0,1-8.366-7.109H43.439A8.49,8.49,0,0,1,35.072,429.844Zm30.279-3.281H45a11.122,11.122,0,0,0,1.195-3.828H65.352a1.914,1.914,0,0,1,0,3.828Z" transform="translate(0 -362.578)" fill="#a02321"/><path d="M57.377,134.36a1.367,1.367,0,1,0,1.078-2.513A13.937,13.937,0,0,1,50,119.024V102.951a4.811,4.811,0,0,1,9.622,0v3.557a5.317,5.317,0,1,0,10.634,0v-.562a3.817,3.817,0,1,1,7.635,0v13.077a13.938,13.938,0,0,1-8.453,12.823,1.367,1.367,0,1,0,1.078,2.513,16.669,16.669,0,0,0,10.11-15.335V105.946a6.552,6.552,0,0,0-13.1,0v.562a2.583,2.583,0,0,1-5.166,0v-3.557a7.545,7.545,0,1,0-15.09,0v16.072A16.669,16.669,0,0,0,57.377,134.36Z" transform="translate(-40.803 -82.362)" fill="rgba(160,35,33,0.1)"/><path d="M131.243,244.906a7.155,7.155,0,1,0-7.155,7.155A7.163,7.163,0,0,0,131.243,244.906Zm-7.155,4.42a4.42,4.42,0,1,1,4.42-4.42A4.425,4.425,0,0,1,124.089,249.326Z" transform="translate(-100.947 -205.246)" fill="rgba(160,35,33,0.5)"/><path d="M48.632,10.178A1.367,1.367,0,0,0,50,8.811V1.367a1.367,1.367,0,0,0-2.734,0V8.811A1.367,1.367,0,0,0,48.632,10.178Z" transform="translate(-40.803 0)" fill="rgba(160,35,33,0.5)"/><path d="M168.367,23.893a1.367,1.367,0,0,0,1.367-1.367V14A1.367,1.367,0,0,0,167,14v8.527A1.367,1.367,0,0,0,168.367,23.893Z" transform="translate(-144.168 -10.905)" fill="rgba(160,35,33,0.5)"/><path d="M272.632,10.117A1.367,1.367,0,0,0,274,8.75V1.367a1.367,1.367,0,0,0-2.734,0V8.75A1.367,1.367,0,0,0,272.632,10.117Z" transform="translate(-234.178 0)" fill="rgba(160,35,33,0.5)"/><path d="M159.661,370.551a1.368,1.368,0,1,0,.968-.4A1.378,1.378,0,0,0,159.661,370.551Z" transform="translate(-137.486 -319.544)" fill="rgba(160,35,33,0.5)"/></svg>