<svg xmlns="http://www.w3.org/2000/svg" width="58" height="62" viewBox="0 0 58 62"><g transform="translate(-3 -1)"><rect width="18" height="38" rx="1" transform="translate(27 25)" fill="rgba(160,35,33,0.1)"/><path d="M33.235,19.324l-.762,2.369a1,1,0,0,0,1.543,1.114L36,21.352l1.984,1.455a1,1,0,0,0,1.543-1.114l-.762-2.369,1.994-1.462a1,1,0,0,0-.592-1.806H37.712l-.76-2.363a1,1,0,0,0-1.9,0l-.76,2.363H31.833a1,1,0,0,0-.592,1.806Z" fill="rgba(160,35,33,0.1)"/><rect width="14" height="18" rx="1" transform="translate(11 45)" fill="rgba(160,35,33,0.1)"/><rect width="14" height="26" rx="1" transform="translate(47 37)" fill="rgba(160,35,33,0.1)"/><path d="M31,14a3.955,3.955,0,0,0-2.041.579,3.982,3.982,0,0,0-6.2-2.893A3.95,3.95,0,0,0,17,9.556V5A4,4,0,1,0,9,5V17.5H7A4.084,4.084,0,0,0,3,21v6.39a11.009,11.009,0,0,0,3.849,8.369A9.013,9.013,0,0,1,10,42.61v.532A3.992,3.992,0,0,0,11,51H28a3.992,3.992,0,0,0,1-7.858v-.9a9.307,9.307,0,0,1,2.707-6.533A11.231,11.231,0,0,0,35,27.76V18a4,4,0,0,0-4-4Zm-8,1a2,2,0,0,1,4,0v5a2,2,0,0,1-4,0Zm-6-2a2,2,0,0,1,4,0v5.379a3.987,3.987,0,0,0-2.5-.879H17ZM11,5a2,2,0,1,1,4,0V17.5H11ZM30,47a2,2,0,0,1-2,2H11a2,2,0,0,1,0-4H28A2,2,0,0,1,30,47Zm3-19.24a9.234,9.234,0,0,1-2.708,6.534A11.316,11.316,0,0,0,27,42.24V43H12v-.39a11.009,11.009,0,0,0-3.849-8.369A9.013,9.013,0,0,1,5,27.39V21.5a2,2,0,0,1,2-2H18.5a2,2,0,0,1,0,4H12a1,1,0,1,0,0,2h6.5a3.985,3.985,0,0,0,3.734-2.622A3.958,3.958,0,0,0,28,22.618a3.92,3.92,0,0,0,5,.826ZM33,20a2,2,0,0,1-4,0V18a2,2,0,0,1,4,0Z" fill="#850202"/></g></svg>