<svg xmlns="http://www.w3.org/2000/svg" width="62.014" height="62.014" viewBox="0 0 62.014 62.014"><g transform="translate(-1 -1)"><path d="M56.89,45.485A19.713,19.713,0,0,0,58,39,20.047,20.047,0,0,0,46.943,21.133a8.983,8.983,0,0,0-17.886,0A20.048,20.048,0,0,0,18,39a19.719,19.719,0,0,0,1.11,6.486A9,9,0,1,0,30.3,57.46a20.015,20.015,0,0,0,15.4,0A9,9,0,1,0,56.89,45.485Zm-1.942-.437h-.01A9.246,9.246,0,0,0,54,45a9.01,9.01,0,0,0-9,9,11.971,11.971,0,0,0,.131,1.527,18.074,18.074,0,0,1-14.262,0A11.937,11.937,0,0,0,31,54a9.01,9.01,0,0,0-9-9,9.237,9.237,0,0,0-.939.047h-.009A17.746,17.746,0,0,1,20,39a18.056,18.056,0,0,1,9.1-15.64,9,9,0,0,0,17.794,0A18.056,18.056,0,0,1,56,39a17.746,17.746,0,0,1-1.052,6.048Z" fill="rgba(160,35,33,0.1)"/><path d="M20.944,18.67a1,1,0,0,0-1.837.793A7.543,7.543,0,0,0,25.848,24h.329a7.535,7.535,0,0,0,6.716-4.537,1,1,0,1,0-1.837-.793,5.519,5.519,0,0,1-4.9,3.33h-.281A5.526,5.526,0,0,1,20.944,18.67Z" fill="#a02321"/><path d="M42.228,20.863A10.491,10.491,0,1,0,29.646,4.551a12.651,12.651,0,0,0-7.291,0A10.49,10.49,0,1,0,9.782,20.867,13.512,13.512,0,0,0,1,33.5V40a1,1,0,0,0,1,1H9.266A17.278,17.278,0,0,0,9,44v6a1,1,0,0,0,1,1H42a1,1,0,0,0,1-1V44a17.278,17.278,0,0,0-.266-3H50a1,1,0,0,0,1-1V33.5a13.451,13.451,0,0,0-8.772-12.637ZM37.5,3a8.5,8.5,0,0,1,.51,16.984A13.335,13.335,0,0,0,38.5,16.5,12.633,12.633,0,0,0,31.638,5.339,8.451,8.451,0,0,1,37.5,3ZM29.624,6.639A10.5,10.5,0,0,1,26.133,27h-.379A10.506,10.506,0,0,1,22.372,6.64a10.66,10.66,0,0,1,7.252,0ZM6,11.5A8.5,8.5,0,0,1,20.362,5.339,12.621,12.621,0,0,0,13.5,16.5a13.353,13.353,0,0,0,.49,3.484A8.51,8.51,0,0,1,6,11.5Zm-3,22A11.539,11.539,0,0,1,14.773,22a12.706,12.706,0,0,0,5.972,5.834A17.1,17.1,0,0,0,9.744,39H3ZM41,49H11V44c0-9.221,8.264-15.542,15.256-14.99A14.966,14.966,0,0,1,41,44Zm8-10H42.255A17.12,17.12,0,0,0,31.27,27.83,12.783,12.783,0,0,0,37.227,22,11.492,11.492,0,0,1,49,33.5Z" fill="#a02321"/></g></svg>