<svg xmlns="http://www.w3.org/2000/svg" width="32.933" height="21.171" viewBox="0 0 32.933 21.171"><g transform="translate(0 0)"><g transform="translate(0 0)"><path d="M32.375,87.861a1.176,1.176,0,0,0-1.144-.052l-7.707,3.854v-2.8a3.529,3.529,0,0,0-3.529-3.529H3.529A3.529,3.529,0,0,0,0,88.862v14.114A3.529,3.529,0,0,0,3.529,106.5H19.995a3.529,3.529,0,0,0,3.529-3.529v-2.8l7.707,3.86a1.176,1.176,0,0,0,1.7-1.059V88.862A1.176,1.176,0,0,0,32.375,87.861Zm-11.2,15.115a1.176,1.176,0,0,1-1.176,1.176H3.529a1.176,1.176,0,0,1-1.176-1.176V88.862a1.176,1.176,0,0,1,1.176-1.176H19.995a1.176,1.176,0,0,1,1.176,1.176v14.114Zm9.409-1.9-7.057-3.529V94.293l7.057-3.529Z" transform="translate(0 -85.333)" fill="#fff"/></g></g><g transform="translate(7.057 5.881)"><g transform="translate(0 0)"><path d="M107.1,170.667a4.7,4.7,0,1,0,4.7,4.7A4.7,4.7,0,0,0,107.1,170.667Zm0,7.057a2.352,2.352,0,1,1,2.352-2.352A2.352,2.352,0,0,1,107.1,177.724Z" transform="translate(-102.4 -170.667)" fill="#fff"/></g></g></svg>